HIERARCHY
ROOT SpineBase
{
  OFFSET 0.000000 0.000000 0.000000
  CHANNELS 6 Xposition Yposition Zposition Zrotation Xrotation Yrotation
  JOINT SpineMid
  {
    OFFSET -0.000000 26.353302 0.000000
    CHANNELS 3 Zrotation Xrotation Yrotation
    JOINT SpineShoulder
    {
      OFFSET -0.061478 19.632609 -0.686820
      CHANNELS 3 Zrotation Xrotation Yrotation
      JOINT Neck
      {
        OFFSET -0.033483 6.520632 -0.506331
        CHANNELS 3 Zrotation Xrotation Yrotation
        JOINT Head
        {
          OFFSET -2.374417 11.864181 1.404966
          CHANNELS 3 Zrotation Xrotation Yrotation
          End Site
          {
            OFFSET 0 0 0
          }
        }
      }
      JOINT ShoulderLeft
      {
        OFFSET -13.092666 -3.629792 3.534731
        CHANNELS 3 Zrotation Xrotation Yrotation
        JOINT ElbowLeft
        {
          OFFSET -1.969074 -21.726635 1.964831
          CHANNELS 3 Zrotation Xrotation Yrotation
          JOINT WristLeft
          {
            OFFSET -1.871864 -20.225541 -5.096360
            CHANNELS 3 Zrotation Xrotation Yrotation
            JOINT HandLeft
            {
              OFFSET 0.856998 -6.600743 -1.752802
              CHANNELS 3 Zrotation Xrotation Yrotation
              JOINT HandTipLeft
              {
                OFFSET -0.378986 -6.330586 -1.867823
                CHANNELS 3 Zrotation Xrotation Yrotation
                End Site
                {
                  OFFSET 0 0 0
                }
              }
              JOINT ThumbLeft
              {
                OFFSET -2.644461 -3.987537 -1.320181
                CHANNELS 3 Zrotation Xrotation Yrotation
                End Site
                {
                  OFFSET 0 0 0
                }
              }
            }
          }
        }
      }
      JOINT ShoulderRight
      {
        OFFSET 12.314627 -2.260465 -5.576763
        CHANNELS 3 Zrotation Xrotation Yrotation
        JOINT ElbowRight
        {
          OFFSET 4.542084 -21.570244 -1.178494
          CHANNELS 3 Zrotation Xrotation Yrotation
          JOINT WristRight
          {
            OFFSET 0.105064 -20.237753 -6.045181
            CHANNELS 3 Zrotation Xrotation Yrotation
            JOINT HandRight
            {
              OFFSET -1.452012 -7.655057 -1.786675
              CHANNELS 3 Zrotation Xrotation Yrotation
              JOINT HandTipRight
              {
                OFFSET 0.446093 -5.662783 -1.724663
                CHANNELS 3 Zrotation Xrotation Yrotation
                End Site
                {
                  OFFSET 0 0 0
                }
              }
              JOINT ThumbRight
              {
                OFFSET -2.319040 0.872595 -0.416011
                CHANNELS 3 Zrotation Xrotation Yrotation
                End Site
                {
                  OFFSET 0 0 0
                }
              }
            }
          }
        }
      }
    }
  }
  JOINT HipLeft
  {
    OFFSET -5.883396 0.313744 -1.443830
    CHANNELS 3 Zrotation Xrotation Yrotation
    JOINT KneeLeft
    {
      OFFSET 3.746751 -34.083838 3.524890
      CHANNELS 3 Zrotation Xrotation Yrotation
      JOINT AnkleLeft
      {
        OFFSET 6.043904 -32.713118 5.385733
        CHANNELS 3 Zrotation Xrotation Yrotation
        JOINT FootLeft
        {
          OFFSET -3.012103 -3.154671 -11.359123
          CHANNELS 3 Zrotation Xrotation Yrotation
          End Site
          {
            OFFSET 0 0 0
          }
        }
      }
    }
  }
  JOINT HipRight
  {
    OFFSET 5.474346 1.060639 -4.546107
    CHANNELS 3 Zrotation Xrotation Yrotation
    JOINT KneeRight
    {
      OFFSET 5.516342 -30.952448 -0.056539
      CHANNELS 3 Zrotation Xrotation Yrotation
      JOINT AnkleRight
      {
        OFFSET 2.368039 -35.416280 7.508428
        CHANNELS 3 Zrotation Xrotation Yrotation
        JOINT FootRight
        {
          OFFSET -3.083779 -3.152731 -11.351989
          CHANNELS 3 Zrotation Xrotation Yrotation
          End Site
          {
            OFFSET 0 0 0
          }
        }
      }
    }
  }
}
MOTION
Frames: 14
Frame Time: 0.033333
24.498449 72.990339 372.573177 0.000000 0.000000 15.277235 -0.000000 0.000000 -15.277235 -0.000000 0.000000 0.000000 -0.000000 0.000000 0.000000 0.000000 0.000000 0.000000 -0.000000 0.000000 0.000000 -0.000000 0.000000 0.000000 -0.000000 0.000000 0.000000 -0.000000 0.000000 0.000000 0.000000 0.000000 0.000000 0.000000 0.000000 0.000000 -0.000000 0.000000 0.000000 -0.000000 0.000000 0.000000 -0.000000 0.000000 0.000000 -0.000000 0.000000 0.000000 0.000000 0.000000 0.000000 0.000000 0.000000 0.000000 -0.000000 0.000000 -15.277235 -0.000000 0.000000 0.000000 -0.000000 0.000000 0.000000 0.000000 0.000000 0.000000 -0.000000 0.000000 -15.277235 -0.000000 0.000000 0.000000 -0.000000 0.000000 0.000000 0.000000 0.000000 0.000000
24.420810 72.994393 372.478684 -0.075747 0.068839 15.378884 0.054779 -0.086462 -15.378797 -0.000000 0.000000 0.000000 -0.000000 0.000000 0.000000 0.000000 0.000000 0.000000 -0.000000 0.000000 0.000000 -0.000000 0.000000 0.000000 -0.000000 0.000000 0.000000 -0.000000 0.000000 0.000000 0.000000 0.000000 0.000000 0.000000 0.000000 0.000000 -0.000000 0.000000 0.000000 -0.000000 0.000000 0.000000 -0.989563 0.184811 0.197112 -0.051613 0.897867 0.214990 0.000000 0.000000 0.000000 0.000000 0.000000 0.000000 0.054779 -0.086462 -15.378797 -0.000000 0.000000 0.000000 -0.000000 0.000000 0.000000 0.000000 0.000000 0.000000 0.054779 -0.086462 -15.378797 -0.000000 0.000000 0.000000 -0.000000 0.000000 0.000000 0.000000 0.000000 0.000000
24.344559 72.996455 372.393836 -0.146552 0.130698 15.468279 0.106386 -0.165050 -15.467958 -0.000000 0.000000 0.000000 -0.000000 0.000000 0.000000 0.000000 0.000000 0.000000 -0.000000 0.000000 0.000000 -0.000000 0.000000 0.000000 -0.839831 -0.032110 0.218838 -0.403336 0.654344 0.117756 0.000000 0.000000 0.000000 0.000000 0.000000 0.000000 -0.000000 0.000000 0.000000 -0.000000 0.000000 0.000000 -1.872595 0.304790 0.382841 -0.079520 1.492814 0.383901 0.000000 0.000000 0.000000 0.000000 0.000000 0.000000 0.106386 -0.165050 -15.467958 -0.000000 0.000000 0.000000 -0.000000 0.000000 0.000000 0.000000 0.000000 0.000000 0.106386 -0.165050 -15.467958 -0.000000 0.000000 0.000000 -0.000000 0.000000 0.000000 0.000000 0.000000 0.000000
24.269697 72.996525 372.318635 -0.212384 0.185548 15.545410 0.154889 -0.235678 -15.544747 -0.000000 0.000000 0.000000 -0.000000 0.000000 0.000000 0.000000 0.000000 0.000000 -0.000000 0.000000 0.000000 -0.000000 0.000000 0.000000 -1.220278 -0.018700 0.321883 -0.574596 0.672795 0.178967 0.000000 0.000000 0.000000 0.000000 0.000000 0.000000 -0.000000 0.000000 0.000000 -0.000000 0.000000 0.000000 -2.637405 0.357084 0.553339 -0.102122 1.804186 0.503554 0.000000 0.000000 0.000000 0.000000 0.000000 0.000000 0.154889 -0.235678 -15.544747 -0.000000 0.000000 0.000000 -0.000000 0.000000 0.000000 0.000000 0.000000 0.000000 -0.579716 -0.605570 -15.647723 1.357136 0.920661 0.268468 -0.751185 -0.362793 -0.185850 0.000000 0.000000 0.000000
24.196225 72.994603 372.253080 -0.273216 0.233364 15.610263 0.200345 -0.298274 -15.609185 -0.000000 0.000000 0.000000 -0.000000 0.000000 0.000000 0.000000 0.000000 0.000000 -0.000000 0.000000 0.000000 -0.000000 0.000000 0.000000 -1.577430 0.013962 0.421650 -0.719719 0.483118 0.235899 0.000000 0.000000 0.000000 0.000000 0.000000 0.000000 -0.000000 0.000000 0.000000 -0.000000 0.000000 0.000000 -3.273616 0.339653 0.705224 -0.136220 1.846932 0.572357 0.000000 0.000000 0.000000 0.000000 0.000000 0.000000 0.200345 -0.298274 -15.609185 -0.000000 0.000000 0.000000 -0.000000 0.000000 0.000000 0.000000 0.000000 0.000000 -0.655249 -0.754485 -15.735240 1.652469 1.119784 0.331272 -0.955153 -0.443052 -0.235757 0.000000 0.000000 0.000000
24.124141 72.990690 372.197170 -0.329025 0.274129 15.662822 0.242804 -0.352775 -15.661287 -0.000000 0.000000 0.000000 -0.000000 0.000000 0.000000 0.000000 0.000000 0.000000 -0.000000 0.000000 0.000000 -0.000000 0.000000 0.000000 -1.913232 0.065782 0.518780 -0.835037 0.085011 0.284954 0.000000 0.000000 0.000000 0.000000 0.000000 0.000000 -0.399162 0.696776 0.171027 0.397110 -0.697947 -0.166181 -3.772397 0.251273 0.835738 -0.196531 1.631180 0.589785 0.000000 0.000000 0.000000 0.000000 0.000000 0.000000 0.242804 -0.352775 -15.661287 -0.000000 0.000000 0.000000 -0.000000 0.000000 0.000000 0.000000 0.000000 0.000000 -0.675039 -0.878914 -15.804410 1.869389 1.265306 0.382066 -1.132791 -0.501399 -0.278572 0.000000 0.000000 0.000000
24.051250 72.981691 372.150737 -0.377257 0.317362 15.618575 0.277891 -0.407208 -15.616543 -0.000000 0.000000 0.000000 -0.000000 0.000000 0.000000 0.000000 0.000000 0.000000 -0.000000 0.000000 0.000000 -0.000000 0.000000 0.000000 -2.062677 0.161452 0.572783 -1.403785 -1.558455 0.485576 0.000000 0.000000 0.000000 0.000000 0.000000 0.000000 -0.338541 0.730210 0.174465 0.336343 -0.731225 -0.170161 -4.465716 -0.040641 1.041298 0.178058 0.091146 0.275441 0.000000 0.000000 0.000000 0.000000 0.000000 0.000000 0.277891 -0.407208 -15.616543 -0.000000 0.000000 0.000000 -0.000000 0.000000 0.000000 0.000000 0.000000 0.000000 -0.632615 -0.961805 -15.765135 2.049861 1.329132 0.425876 -1.328195 -0.537924 -0.323727 0.000000 0.000000 0.000000
23.983627 72.973201 372.121363 -0.425137 0.324115 15.573766 0.322520 -0.426348 -15.571363 -0.000000 0.000000 0.000000 -0.000000 0.000000 0.000000 0.000000 0.000000 0.000000 -0.000000 0.000000 0.000000 -0.000000 0.000000 0.000000 -2.181105 0.337514 0.630559 -1.793767 -1.629929 0.561629 0.000000 0.000000 0.000000 0.000000 0.000000 0.000000 -0.000000 0.000000 0.000000 -0.000000 0.000000 0.000000 -4.725722 -0.093504 1.108974 -0.152880 -1.056234 0.240438 0.000000 0.000000 0.000000 0.000000 0.000000 0.000000 0.322520 -0.426348 -15.571363 -0.000000 0.000000 0.000000 -0.633958 1.909123 0.441467 0.000000 0.000000 0.000000 -0.463087 -0.996187 -15.715562 1.997142 1.288808 0.436611 -1.399114 -0.516542 -0.337431 0.000000 0.000000 0.000000
23.917229 72.964000 372.098001 -0.462106 0.335105 15.611848 0.354886 -0.447094 -15.609112 -0.000000 0.000000 0.000000 -0.000000 0.000000 0.000000 0.000000 0.000000 0.000000 -0.000000 0.000000 0.000000 -0.000000 0.000000 0.000000 -2.803871 0.435036 0.813586 -0.574881 -1.581760 0.208973 0.000000 0.000000 0.000000 0.000000 0.000000 0.000000 -0.000000 0.000000 0.000000 -0.468845 0.740494 0.146643 -3.881403 -1.304049 0.899065 -0.934014 -1.052784 0.322718 0.000000 0.000000 0.000000 0.000000 0.000000 0.000000 0.354886 -0.447094 -15.609112 -0.000000 0.000000 0.000000 -0.721796 1.585891 1.036768 0.000000 0.000000 0.000000 -0.351315 -1.052220 -15.755259 1.999422 1.289556 0.455804 -1.487995 -0.503234 -0.355640 0.000000 0.000000 0.000000
23.857999 72.955233 372.078474 -0.494284 0.356583 15.751045 0.378940 -0.477360 -15.747928 -0.000000 0.000000 0.000000 0.749473 -0.282405 -0.143280 0.000000 0.000000 0.000000 -0.000000 0.000000 0.000000 -0.000000 0.000000 0.000000 -3.098360 0.314158 0.874661 0.152619 -1.257218 0.022808 0.000000 0.000000 0.000000 0.000000 0.000000 0.000000 -0.000000 0.000000 0.000000 -0.504502 0.773676 0.157808 -3.714742 -1.892265 0.943483 -1.126954 -0.720341 0.271418 0.000000 0.000000 0.000000 0.000000 0.000000 0.000000 1.098762 -0.958138 -15.683231 -0.822960 0.268232 -0.053753 -0.098666 -0.719689 1.065003 0.000000 0.000000 0.000000 -0.246053 -1.143425 -15.900581 1.956773 1.338261 0.473294 -1.542340 -0.513311 -0.368215 0.000000 0.000000 0.000000
23.803618 72.944177 372.058992 -0.504998 0.375874 15.912567 0.382610 -0.499914 -15.909241 -0.000000 0.000000 0.000000 0.849742 -0.406060 -0.178694 0.000000 0.000000 0.000000 0.733154 -0.343318 0.099645 -0.732569 0.344564 -0.095246 -3.477207 0.197779 0.958641 0.348294 -1.070136 -0.010492 0.000000 0.000000 0.000000 0.000000 0.000000 0.000000 -0.000000 0.000000 0.000000 -0.523130 0.733856 0.163116 -3.057902 -2.144749 0.854219 -1.657358 -0.080075 0.399397 0.000000 0.000000 0.000000 0.000000 0.000000 0.000000 1.152557 -1.014962 -15.839217 -0.881258 0.285264 -0.057651 2.146716 -7.453282 -0.621076 0.000000 0.000000 0.000000 -0.117964 -1.219220 -16.064040 1.802471 1.390321 0.475672 -1.524968 -0.547499 -0.367168 0.000000 0.000000 0.000000
23.754986 72.932925 372.039897 -0.531130 0.416591 16.045786 0.395309 -0.547154 -16.041968 -0.000000 0.000000 0.000000 1.005876 -0.627482 -0.238928 0.000000 0.000000 0.000000 0.747030 -0.400152 0.106462 -0.746304 0.401505 -0.101238 -3.738024 0.455447 1.070339 0.817628 -0.431657 -0.206939 0.000000 0.000000 0.000000 0.000000 0.000000 0.000000 -0.000000 0.000000 0.000000 -0.533425 0.694752 0.165884 -2.655565 -1.922887 0.742656 -2.355444 0.524458 0.715537 0.000000 0.000000 0.000000 0.000000 0.000000 0.000000 1.193738 -1.137238 -15.972190 -0.929945 0.347502 -0.055222 3.093250 -9.133384 -3.136916 0.000000 0.000000 0.000000 -0.014496 -1.314838 -16.200013 1.738679 1.414838 0.487500 -1.563941 -0.549525 -0.375787 0.000000 0.000000 0.000000
23.715908 72.930010 372.024849 -0.523851 0.444655 16.113358 0.379884 -0.572561 -16.109427 -0.000000 0.000000 0.000000 1.002170 -0.796397 -0.270852 0.000000 0.000000 0.000000 0.712486 -0.482256 0.111160 -0.711574 0.483600 -0.105158 -4.419975 -0.593610 1.081183 1.258776 -0.019417 -0.142223 0.000000 0.000000 0.000000 0.000000 0.000000 0.000000 -0.000000 0.000000 0.000000 -0.631295 0.667187 0.195380 -1.862122 -2.438339 0.661119 -2.848308 1.994440 0.872881 0.000000 0.000000 0.000000 0.000000 0.000000 0.000000 1.198151 -1.167343 -16.036590 -0.950693 0.345485 -0.057547 5.455437 -18.533629 -2.494498 0.000000 0.000000 0.000000 0.044852 -1.350907 -16.264723 1.698316 1.376503 0.491933 -1.599112 -0.521251 -0.381156 0.000000 0.000000 0.000000
23.667220 72.920237 372.013372 -0.515799 0.433266 16.224260 0.374224 -0.560111 -16.220481 -0.000000 0.000000 0.000000 0.883406 -0.809761 -0.260251 0.000000 0.000000 0.000000 0.753099 -0.439016 0.110808 -0.047409 -0.203112 -0.225198 -6.072644 -0.757232 1.375442 2.541674 -1.404854 -0.327185 0.000000 0.000000 0.000000 0.000000 0.000000 0.000000 -0.000000 0.000000 0.000000 -0.000000 0.000000 0.000000 -1.902019 -2.650218 0.904768 -3.091469 3.328984 0.857119 0.000000 0.000000 0.000000 0.000000 0.000000 0.000000 1.257911 -1.182321 -16.139972 -1.021779 0.351911 -0.063934 7.494899 -25.928427 -1.011794 0.000000 0.000000 0.000000 0.374224 -0.560111 -16.220481 1.632024 0.450855 0.369700 -2.177475 1.780584 -0.527069 0.000000 0.000000 0.000000
